<svg xmlns="http://www.w3.org/2000/svg" width="209.831" height="247.533" viewBox="0 0 209.831 247.533">
  <path id="Mark" d="M67.772,247.533,0,247.531c4.361-19.706,9.127-40.681,14.167-62.343,5.086-21.862,10.368-43.951,15.7-65.653,5.305-21.6,10.652-43.008,15.892-63.629C50.979,35.358,55.938,16.549,60.5,0h88.834q3.908,15.02,8.371,32.164l.053.2,6.125,23.541c5.314,20.416,10.788,41.823,16.274,63.629,5.459,21.707,10.805,43.8,15.89,65.653,5.069,21.789,9.706,42.763,13.785,62.341l-67.775,0-6.892-40.092h-60.5l-6.892,40.092v0Zm.563-103.4L84.16,183.126H125.37l15.415-38.991L106.639,56.512v77.206a8.359,8.359,0,0,1,6.7,8.07,8.622,8.622,0,0,1-17.231,0,8.358,8.358,0,0,1,6.7-8.071v-76.8Z" fill="#42403f"/>
</svg>
